# xmcd
#
# Track frame offsets: 
#        150
#        19027
#        33969
#        61961
#        75868
#        92401
#        107690
#        125940
#        140259
#        154147
#        189418
#        225249
#        239376
#        260798
#        286340
#        297141
#        317061
#        338058
#
# Disc length: 4647 seconds
#
# Revision: 2
# Processed by: cddbd v1.5.2PL0 Copyright (c) Steve Scherf et al.
# Submitted via: ExactAudioCopy v1.0b3
#
DISCID=ee122512
DTITLE=Jazz Émotions - Ballades
DYEAR=2008
DGENRE=Jazz
TTITLE0=Eliane Elias - Call me
TTITLE1=Sarah Vaughan - Black Coffee
TTITLE2=John Pizzarrelli - S'Wonderful
TTITLE3=Helen Merril - Night And Day
TTITLE4=Erroll Garner - I'm In the Mood For Love
TTITLE5=Double Six - Early Autumn - Finalement l'Automne est Arrivé
TTITLE6=Sonny Rollins - Round Midnight
TTITLE7=Lisa Ekdahl - It Had To Be You
TTITLE8=Mel Tormé - They Can't Take That Away From Me
TTITLE9=George Benson - Willow Weep For Me
TTITLE10=Miles Davis - Bye Bye Black Bird
TTITLE11=Ella Fitzgerald - Makin' Whoopee
TTITLE12=Duke Ellington - Prelude To A Kiss
TTITLE13=Paolo Fresu - Soul Eyes
TTITLE14=Nina Simone - The Look Of Love
TTITLE15=Paul Desmond - A Taste Of Honey
TTITLE16=Thelonious Monk - Ask Me Now
TTITLE17=Chet Baker - My Funny Valentine
EXTD=YEAR: 2008
EXTT0=
EXTT1=
EXTT2=
EXTT3=
EXTT4=
EXTT5=
EXTT6=
EXTT7=
EXTT8=
EXTT9=
EXTT10=
EXTT11=
EXTT12=
EXTT13=
EXTT14=
EXTT15=
EXTT16=
EXTT17=
PLAYORDER=
